# Blender 5.1.1
# www.blender.org
mtllib Floor.mtl
o Floor
v 0.000000 0.000000 -4.000000
v 0.000000 0.000000 -7.500000
v -0.490524 0.000000 -7.483942
v -0.978947 0.000000 -7.435837
v -1.463177 0.000000 -7.355889
v -1.941143 0.000000 -7.244443
v -2.410796 0.000000 -7.101976
v -2.870126 0.000000 -6.929096
v -3.317165 0.000000 -6.726546
v -3.750000 0.000000 -6.495191
v -4.166777 0.000000 -6.236022
v -4.565711 0.000000 -5.950150
v -4.945094 0.000000 -5.638798
v -5.303301 0.000000 -5.303301
v -5.638798 0.000000 -4.945094
v -5.950150 0.000000 -4.565711
v -6.236022 0.000000 -4.166777
v -6.495191 0.000000 -3.750000
v -6.726546 0.000000 -3.317165
v -6.929096 0.000000 -2.870126
v -7.101976 0.000000 -2.410796
v -7.244443 0.000000 -1.941143
v -7.355889 0.000000 -1.463177
v -7.435837 0.000000 -0.978947
v -7.483942 0.000000 -0.490524
v -7.500000 0.000000 0.000000
v -7.483942 0.000000 0.490524
v -7.435837 0.000000 0.978947
v -7.355889 0.000000 1.463177
v -7.244443 0.000000 1.941143
v -7.101976 0.000000 2.410796
v -6.929096 0.000000 2.870126
v -6.726546 0.000000 3.317165
v -6.495191 0.000000 3.750000
v -6.236022 0.000000 4.166777
v -5.950150 0.000000 4.565711
v -5.638798 0.000000 4.945094
v -5.303301 0.000000 5.303301
v -4.945094 0.000000 5.638798
v -4.565711 0.000000 5.950150
v -4.166777 0.000000 6.236022
v -3.750000 0.000000 6.495191
v -3.317165 0.000000 6.726546
v -2.870126 0.000000 6.929096
v -2.410796 0.000000 7.101976
v -1.941143 0.000000 7.244443
v -1.463177 0.000000 7.355889
v -0.978947 0.000000 7.435837
v -0.490524 0.000000 7.483942
v 0.000000 0.000000 7.500000
v 0.490524 0.000000 7.483942
v 0.978947 0.000000 7.435837
v 1.463177 0.000000 7.355889
v 1.941143 0.000000 7.244443
v 2.410796 0.000000 7.101976
v 2.870126 0.000000 6.929096
v 3.317165 0.000000 6.726546
v 3.750000 0.000000 6.495191
v 4.166777 0.000000 6.236022
v 4.565711 0.000000 5.950150
v 4.945094 0.000000 5.638798
v 5.303301 0.000000 5.303301
v 5.638798 0.000000 4.945094
v 5.950150 0.000000 4.565711
v 6.236022 0.000000 4.166777
v 6.495191 0.000000 3.750000
v 6.726546 0.000000 3.317165
v 6.929096 0.000000 2.870126
v 7.101976 0.000000 2.410796
v 7.244443 0.000000 1.941143
v 7.355889 0.000000 1.463177
v 7.435837 0.000000 0.978947
v 7.483942 0.000000 0.490524
v 7.500000 0.000000 0.000000
v 7.483942 0.000000 -0.490524
v 7.435837 0.000000 -0.978947
v 7.355889 0.000000 -1.463177
v 7.244443 0.000000 -1.941143
v 7.101976 0.000000 -2.410796
v 6.929096 0.000000 -2.870126
v 6.726546 0.000000 -3.317165
v 6.495191 0.000000 -3.750000
v 6.236022 0.000000 -4.166777
v 5.950150 0.000000 -4.565711
v 5.638798 0.000000 -4.945094
v 5.303301 0.000000 -5.303301
v 4.945094 0.000000 -5.638798
v 4.565711 0.000000 -5.950150
v 4.166777 0.000000 -6.236022
v 3.750000 0.000000 -6.495191
v 3.317165 0.000000 -6.726546
v 2.870126 0.000000 -6.929096
v 2.410796 0.000000 -7.101976
v 1.941143 0.000000 -7.244443
v 1.463177 0.000000 -7.355889
v 0.978947 0.000000 -7.435837
v 0.490524 0.000000 -7.483942
v -0.261613 0.000000 -3.991436
v -0.522105 0.000000 -3.965780
v -0.780361 0.000000 -3.923141
v -1.035276 0.000000 -3.863703
v -1.285758 0.000000 -3.787720
v -1.530734 0.000000 -3.695518
v -1.769155 0.000000 -3.587491
v -2.000000 0.000000 -3.464102
v -2.222281 0.000000 -3.325878
v -2.435046 0.000000 -3.173413
v -2.637383 0.000000 -3.007359
v -2.828427 0.000000 -2.828427
v -3.007359 0.000000 -2.637383
v -3.173413 0.000000 -2.435046
v -3.325878 0.000000 -2.222281
v -3.464102 0.000000 -2.000000
v -3.587491 0.000000 -1.769155
v -3.695518 0.000000 -1.530734
v -3.787720 0.000000 -1.285758
v -3.863703 0.000000 -1.035276
v -3.923141 0.000000 -0.780361
v -3.965780 0.000000 -0.522105
v -3.991436 0.000000 -0.261613
v -4.000000 0.000000 0.000000
v -3.991436 0.000000 0.261613
v -3.965780 0.000000 0.522105
v -3.923141 0.000000 0.780361
v -3.863703 0.000000 1.035276
v -3.787720 0.000000 1.285758
v -3.695518 0.000000 1.530734
v -3.587491 0.000000 1.769155
v -3.464102 0.000000 2.000000
v -3.325878 0.000000 2.222281
v -3.173413 0.000000 2.435046
v -3.007359 0.000000 2.637383
v -2.828427 0.000000 2.828427
v -2.637383 0.000000 3.007359
v -2.435046 0.000000 3.173413
v -2.222281 0.000000 3.325878
v -2.000000 0.000000 3.464102
v -1.769155 0.000000 3.587491
v -1.530734 0.000000 3.695518
v -1.285758 0.000000 3.787720
v -1.035276 0.000000 3.863703
v -0.780361 0.000000 3.923141
v -0.522105 0.000000 3.965780
v -0.261613 0.000000 3.991436
v 0.000000 0.000000 4.000000
v 0.261613 0.000000 3.991436
v 0.522105 0.000000 3.965780
v 0.780361 0.000000 3.923141
v 1.035276 0.000000 3.863703
v 1.285758 0.000000 3.787720
v 1.530734 0.000000 3.695518
v 1.769155 0.000000 3.587491
v 2.000000 0.000000 3.464102
v 2.222281 0.000000 3.325878
v 2.435046 0.000000 3.173413
v 2.637383 0.000000 3.007359
v 2.828427 0.000000 2.828427
v 3.007359 0.000000 2.637383
v 3.173413 0.000000 2.435046
v 3.325878 0.000000 2.222281
v 3.464102 0.000000 2.000000
v 3.587491 0.000000 1.769155
v 3.695518 0.000000 1.530734
v 3.787720 0.000000 1.285758
v 3.863703 0.000000 1.035276
v 3.923141 0.000000 0.780361
v 3.965780 0.000000 0.522105
v 3.991436 0.000000 0.261613
v 4.000000 0.000000 0.000000
v 3.991436 0.000000 -0.261613
v 3.965780 0.000000 -0.522105
v 3.923141 0.000000 -0.780361
v 3.863703 0.000000 -1.035276
v 3.787720 0.000000 -1.285758
v 3.695518 0.000000 -1.530734
v 3.587491 0.000000 -1.769155
v 3.464102 0.000000 -2.000000
v 3.325878 0.000000 -2.222281
v 3.173413 0.000000 -2.435046
v 3.007359 0.000000 -2.637383
v 2.828427 0.000000 -2.828427
v 2.637383 0.000000 -3.007359
v 2.435046 0.000000 -3.173413
v 2.222281 0.000000 -3.325878
v 2.000000 0.000000 -3.464102
v 1.769155 0.000000 -3.587491
v 1.530734 0.000000 -3.695518
v 1.285758 0.000000 -3.787720
v 1.035276 0.000000 -3.863703
v 0.780361 0.000000 -3.923141
v 0.522105 0.000000 -3.965780
v 0.261613 0.000000 -3.991436
vn -0.0000 1.0000 -0.0000
s 0
f 2//1 3//1 4//1 5//1 6//1 7//1 8//1 9//1 10//1 11//1 12//1 13//1 14//1 15//1 16//1 17//1 18//1 19//1 20//1 21//1 22//1 23//1 24//1 25//1 26//1 27//1 28//1 29//1 30//1 31//1 32//1 33//1 34//1 35//1 36//1 37//1 38//1 39//1 40//1 41//1 42//1 43//1 44//1 45//1 46//1 47//1 48//1 49//1 50//1 51//1 52//1 53//1 54//1 55//1 56//1 57//1 58//1 59//1 60//1 61//1 62//1 63//1 64//1 65//1 66//1 67//1 68//1 69//1 70//1 71//1 72//1 73//1 74//1 75//1 76//1 77//1 78//1 79//1 80//1 81//1 82//1 83//1 84//1 85//1 86//1 87//1 88//1 89//1 90//1 91//1 92//1 93//1 94//1 95//1 96//1 97//1
l 1 192
l 192 191
l 191 190
l 190 189
l 189 188
l 188 187
l 187 186
l 186 185
l 185 184
l 184 183
l 183 182
l 182 181
l 181 180
l 180 179
l 179 178
l 178 177
l 177 176
l 176 175
l 175 174
l 174 173
l 173 172
l 172 171
l 171 170
l 170 169
l 169 168
l 168 167
l 167 166
l 166 165
l 165 164
l 164 163
l 163 162
l 162 161
l 161 160
l 160 159
l 159 158
l 158 157
l 157 156
l 156 155
l 155 154
l 154 153
l 153 152
l 152 151
l 151 150
l 150 149
l 149 148
l 148 147
l 147 146
l 146 145
l 145 144
l 144 143
l 143 142
l 142 141
l 141 140
l 140 139
l 139 138
l 138 137
l 137 136
l 136 135
l 135 134
l 134 133
l 133 132
l 132 131
l 131 130
l 130 129
l 129 128
l 128 127
l 127 126
l 126 125
l 125 124
l 124 123
l 123 122
l 122 121
l 121 120
l 120 119
l 119 118
l 118 117
l 117 116
l 116 115
l 115 114
l 114 113
l 113 112
l 112 111
l 111 110
l 110 109
l 109 108
l 108 107
l 107 106
l 106 105
l 105 104
l 104 103
l 103 102
l 102 101
l 101 100
l 100 99
l 99 98
l 98 1
